<svg width="406" height="309" viewBox="0 0 406 309" fill="none" xmlns="http://www.w3.org/2000/svg">
<g clip-path="url(#clip0_17_43)">
<path d="M345.922 294.164C347.695 294.276 348.675 292.065 347.334 290.776L347.2 290.244C347.218 290.201 347.235 290.159 347.253 290.116C349.047 285.825 355.126 285.855 356.904 290.152C358.482 293.966 360.492 297.787 360.987 301.819C361.209 303.599 361.109 305.413 360.715 307.16C364.414 299.054 366.36 290.204 366.36 281.303C366.36 279.067 366.238 276.83 365.989 274.599C365.783 272.775 365.501 270.961 365.135 269.164C363.155 259.451 358.869 250.2 352.686 242.473C349.714 240.843 347.235 238.295 345.738 235.241C345.2 234.14 344.779 232.955 344.579 231.748C344.917 231.792 345.854 226.624 345.599 226.307C346.071 225.59 346.914 225.233 347.429 224.533C349.99 221.05 353.517 221.658 355.359 226.391C359.293 228.382 359.331 231.686 356.917 234.863C355.381 236.884 355.17 239.619 353.823 241.783C353.961 241.961 354.106 242.134 354.244 242.312C356.786 245.583 358.985 249.099 360.839 252.793C360.315 248.688 361.088 243.742 362.407 240.554C363.907 236.922 366.721 233.862 369.198 230.722C372.173 226.95 378.275 228.597 378.8 233.378C378.805 233.424 378.81 233.47 378.814 233.517C378.446 233.725 378.086 233.946 377.734 234.18C375.725 235.513 376.419 238.636 378.799 239.005L378.853 239.013C378.72 240.343 378.493 241.661 378.16 242.957C381.338 255.287 374.477 259.778 364.68 259.98C364.464 260.091 364.253 260.202 364.037 260.308C365.029 263.112 365.822 265.988 366.41 268.903C366.937 271.479 367.303 274.082 367.508 276.697C367.763 279.996 367.741 283.311 367.464 286.604L367.48 286.488C368.184 282.861 370.147 279.473 372.998 277.125C377.244 273.626 383.242 272.337 387.823 269.525C390.028 268.171 392.853 269.921 392.468 272.485L392.45 272.608C391.768 272.886 391.102 273.209 390.459 273.57C390.091 273.779 389.731 274 389.378 274.233C387.37 275.566 388.064 278.69 390.444 279.058L390.498 279.067C390.537 279.072 390.57 279.078 390.609 279.083C389.439 281.87 387.809 284.457 385.768 286.688C383.781 297.452 375.246 298.473 366.116 295.338H366.111C365.113 299.7 363.654 303.961 361.78 308.022H346.309C346.254 307.85 346.204 307.671 346.154 307.499C347.585 307.588 349.026 307.505 350.435 307.243C349.287 305.83 348.139 304.406 346.991 302.993C346.964 302.965 346.941 302.937 346.919 302.91C346.337 302.186 345.749 301.469 345.167 300.746L345.167 300.745C345.13 298.525 345.396 296.312 345.922 294.164Z" fill="#F2F2F2"/>
<path d="M133.273 307.975C133.273 308.544 133.728 309 134.295 309H404.978C405.545 309 406 308.544 406 307.975C406 307.407 405.545 306.95 404.978 306.95H134.295C133.728 306.95 133.273 307.407 133.273 307.975Z" fill="#CCCCCC"/>
<path d="M234.96 233.912L230.779 237.28L229.44 238.365C229.32 238.201 229.182 238.029 229.045 237.874C227.731 236.384 225.843 235.531 223.868 235.531H190.317C190.205 234.963 190.18 234.386 190.231 233.809C190.377 232.138 191.176 230.527 192.584 229.399L216.15 210.407C218.88 208.202 222.881 208.642 225.079 211.389L235.939 224.955C238.137 227.702 237.699 231.707 234.96 233.912Z" fill="#E6E6E6"/>
<path d="M227.938 235.531H186.505C185.424 235.531 184.368 235.79 183.423 236.272L183.192 236.091C182.779 235.773 182.41 235.411 182.11 235.023C180.315 232.784 180.204 229.537 182.024 227.16L192.592 213.362C194.73 210.571 198.722 210.046 201.504 212.19L225.465 230.665C226.547 231.492 227.277 232.603 227.654 233.809C227.826 234.369 227.929 234.946 227.938 235.531Z" fill="#6C63FF"/>
<path d="M261.832 21.9302H16.3291C7.32322 21.9302 0 29.277 0 38.312V292.36C0 301.395 7.32322 308.741 16.3291 308.741H261.832C270.838 308.741 278.161 301.395 278.161 292.36V38.312C278.161 29.277 270.838 21.9302 261.832 21.9302ZM276.444 292.36C276.444 300.447 269.893 307.019 261.832 307.019H16.3291C8.26757 307.019 1.71704 300.447 1.71704 292.36V38.312C1.71704 30.2245 8.26756 23.6528 16.3291 23.6528H261.832C269.893 23.6528 276.444 30.2244 276.444 38.312V292.36Z" fill="#3F3D56"/>
<path d="M110.775 38.5962H86.6849C85.4744 38.5962 84.4871 39.5867 84.4871 40.8011C84.4871 42.0241 85.4744 43.0146 86.6849 43.0146H110.775C111.986 43.0146 112.973 42.0241 112.973 40.8011C112.973 39.5867 111.986 38.5962 110.775 38.5962Z" fill="#E6E6E6"/>
<path d="M151.126 38.5962H127.035C125.825 38.5962 124.838 39.5867 124.838 40.8011C124.838 42.0241 125.825 43.0146 127.035 43.0146H151.126C152.336 43.0146 153.323 42.0241 153.323 40.8011C153.323 39.5867 152.336 38.5962 151.126 38.5962Z" fill="#E6E6E6"/>
<path d="M191.476 38.5962H167.386C166.175 38.5962 165.188 39.5867 165.188 40.8011C165.188 42.0241 166.175 43.0146 167.386 43.0146H191.476C192.686 43.0146 193.674 42.0241 193.674 40.8011C193.674 39.5867 192.686 38.5962 191.476 38.5962Z" fill="#E6E6E6"/>
<path d="M75.2064 82.6514H44.9864C41.2432 82.6514 38.2041 85.7003 38.2041 89.4556V106.854C38.2041 110.609 41.2433 113.658 44.9864 113.658H75.2064C78.9496 113.658 81.9887 110.609 81.9887 106.854V89.4556C81.9887 85.7003 78.9496 82.6514 75.2064 82.6514Z" fill="#F2F2F2"/>
<path d="M75.2064 128.3H44.9864C41.2432 128.3 38.2041 131.349 38.2041 135.104V152.502C38.2041 156.258 41.2433 159.307 44.9864 159.307H75.2064C78.9496 159.307 81.9887 156.258 81.9887 152.502V135.104C81.9887 131.349 78.9496 128.3 75.2064 128.3Z" fill="#E6E6E6"/>
<path d="M75.2064 173.949H44.9864C41.2432 173.949 38.2041 176.998 38.2041 180.753V198.151C38.2041 201.906 41.2433 204.955 44.9864 204.955H75.2064C78.9496 204.955 81.9887 201.906 81.9887 198.151V180.753C81.9887 176.998 78.9496 173.949 75.2064 173.949Z" fill="#E6E6E6"/>
<path d="M142.171 82.6514H111.951C108.208 82.6514 105.169 85.7003 105.169 89.4556V106.854C105.169 110.609 108.208 113.658 111.951 113.658H142.171C145.914 113.658 148.954 110.609 148.954 106.854V89.4556C148.954 85.7003 145.914 82.6514 142.171 82.6514Z" fill="#E6E6E6"/>
<path d="M142.171 128.3H111.951C108.208 128.3 105.169 131.349 105.169 135.104V152.502C105.169 156.258 108.208 159.307 111.951 159.307H142.171C145.914 159.307 148.954 156.258 148.954 152.502V135.104C148.954 131.349 145.914 128.3 142.171 128.3Z" fill="#F2F2F2"/>
<path d="M209.136 128.3H178.916C175.173 128.3 172.134 131.349 172.134 135.104V152.502C172.134 156.258 175.173 159.307 178.916 159.307H209.136C212.879 159.307 215.918 156.258 215.918 152.502V135.104C215.918 131.349 212.879 128.3 209.136 128.3Z" fill="#E6E6E6"/>
<path d="M231.208 258.356H46.9524C39.2859 258.356 33.053 264.609 33.053 272.3V284.892C33.053 292.584 39.2859 298.837 46.9524 298.837H231.208C238.875 298.837 245.108 292.584 245.108 284.892V272.3C245.108 264.609 238.875 258.356 231.208 258.356Z" fill="#F2F2F2"/>
<path d="M237.647 233.835C237.501 233.654 237.355 233.464 237.201 233.292C235.561 231.432 233.209 230.364 230.736 230.364C215.169 232.683 199.275 232.638 183.071 230.364C181.509 230.364 179.998 230.794 178.676 231.578C177.911 232.026 177.207 232.603 176.607 233.292C174.967 235.144 174.203 237.624 174.503 240.088L182.032 301.145C182.565 305.477 186.248 308.741 190.592 308.741H223.216C227.56 308.741 231.243 305.477 231.775 301.145L239.304 240.088C239.579 237.857 238.978 235.617 237.647 233.835Z" fill="white"/>
<path d="M237.647 233.835C237.501 233.654 237.355 233.464 237.201 233.292C235.561 231.432 233.209 230.364 230.736 230.364C214.848 232.072 198.96 232.072 183.071 230.364C181.509 230.364 179.998 230.794 178.676 231.578C177.911 232.026 177.207 232.603 176.607 233.292C174.967 235.144 174.203 237.624 174.503 240.088L182.032 301.145C182.23 302.773 182.874 304.245 183.827 305.451C185.415 307.458 187.853 308.733 190.558 308.741H223.216C226.246 308.741 228.959 307.148 230.496 304.719C231.166 303.66 231.612 302.454 231.775 301.145L239.304 240.088C239.579 237.857 238.978 235.617 237.647 233.835ZM237.596 239.872L230.075 300.929C230.075 300.947 230.067 300.972 230.067 300.99C229.612 304.435 226.676 307.019 223.216 307.019H190.592C187.132 307.019 184.196 304.435 183.741 300.99C183.741 300.972 183.732 300.947 183.732 300.929L176.212 239.872C175.971 237.9 176.581 235.919 177.894 234.429C178.487 233.757 179.199 233.214 179.989 232.827C180.933 232.344 181.989 232.086 183.071 232.086C198.96 235.188 214.848 235.188 230.736 232.086C232.711 232.086 234.6 232.939 235.913 234.429C236.051 234.584 236.188 234.756 236.308 234.92C237.347 236.341 237.811 238.115 237.596 239.872Z" fill="#3F3D56"/>
<path d="M230.942 300.99L230.496 304.719C228.959 307.148 226.246 308.741 223.216 308.741H190.557C187.853 308.733 185.415 307.458 183.827 305.451L183.724 300.99H230.942Z" fill="#3F3D56"/>
<path d="M265.31 101.018L224.217 129.348L219.151 123.854L256.953 92.0779L265.31 101.018Z" fill="#A0616A"/>
<path d="M221.05 134.176C225.095 130.917 226.81 126.322 224.881 123.913C222.952 121.504 218.11 122.193 214.066 125.451C210.021 128.71 208.306 133.305 210.235 135.714C212.164 138.123 217.006 137.435 221.05 134.176Z" fill="#A0616A"/>
<path d="M286.409 304.046L278.601 304.046L274.886 273.831L286.41 273.832L286.409 304.046Z" fill="#A0616A"/>
<path d="M259.657 303.869C259.414 304.279 259.286 305.605 259.286 306.083C259.286 307.551 260.472 308.742 261.936 308.742H286.117C287.115 308.742 287.925 307.93 287.925 306.928V305.918C287.925 305.918 289.121 302.882 286.658 299.141C286.658 299.141 283.597 302.071 279.023 297.482L277.674 295.031L267.911 302.194L262.5 302.862C261.316 303.009 260.266 302.84 259.657 303.869Z" fill="#2F2E41"/>
<path d="M312.796 304.046L304.988 304.046L301.273 273.831L312.797 273.832L312.796 304.046Z" fill="#A0616A"/>
<path d="M286.044 303.869C285.801 304.279 285.673 305.605 285.673 306.083C285.673 307.551 286.859 308.742 288.323 308.742H312.504C313.502 308.742 314.311 307.93 314.311 306.928V305.918C314.311 305.918 315.508 302.882 313.045 299.141C313.045 299.141 309.984 302.071 305.41 297.482L304.061 295.031L294.298 302.194L288.887 302.862C287.703 303.009 286.653 302.84 286.044 303.869Z" fill="#2F2E41"/>
<path d="M272.97 135.637L264.025 221.784C264.025 221.784 270.286 280.561 271.628 280.561C272.97 280.561 274.311 281.67 272.97 282.91C271.628 284.15 269.839 285.048 271.628 285.048C273.417 285.048 273.634 284.5 273.525 286.344C273.417 288.189 272.075 289.535 272.075 289.535L290.412 288.189L288.176 228.065L296.673 180.056C296.673 180.056 299.357 280.112 300.251 281.01C301.146 281.907 301.146 279.664 301.146 281.907C301.146 284.15 300.251 285.048 300.251 285.048L300.209 289.535H313.52L332.452 164.801L329.321 133.394L272.97 135.637Z" fill="#2F2E41"/>
<path d="M316.799 42.7598H300.698L291.039 45.185C285.822 48.2924 276.471 57.5404 276.706 63.6223L278.784 117.241C278.784 117.241 271.668 134.064 273.01 134.064C274.352 134.064 267.826 139.451 267.826 142.591C267.826 145.732 265.59 145.283 266.932 146.629C268.274 147.976 332.452 146.629 332.452 146.629C332.452 146.629 333.123 145.283 333.123 143.04C333.123 140.797 334.454 139.461 334.454 139.461V135.248L330.439 120.606L337.595 55.0985L316.799 42.7598Z" fill="#6C63FF"/>
<path d="M236.441 108.199L241.923 117.722C244.917 115.904 259.378 107.188 261.879 106.985C262.821 106.909 263.032 106.731 263.074 106.678C263.116 106.626 263.104 106.509 263.078 106.323C263.039 106.033 262.981 105.596 263.319 105.222C263.814 104.675 264.249 105.005 264.459 105.163C264.784 105.409 265.33 105.821 267.088 105.572C267.537 105.508 267.82 105.453 267.998 105.41L267.978 105.392C267.595 105.029 266.953 104.423 266.907 103.449C266.865 102.576 266.854 102.343 267.171 102.192C267.463 102.055 267.691 102.261 267.827 102.384C268.056 102.593 268.434 102.936 269.21 102.906C271.197 102.254 289.66 75.5095 293.265 64.8552C294.163 62.2023 294.052 59.7387 292.935 57.5342C290.795 53.3072 285.555 51.1897 284.261 50.7212L258.051 87.6248L236.441 108.199Z" fill="#6C63FF"/>
<path d="M309.033 39.3071C318.611 39.3071 326.375 31.5174 326.375 21.9083C326.375 12.2992 318.611 4.50952 309.033 4.50952C299.455 4.50952 291.69 12.2992 291.69 21.9083C291.69 31.5174 299.455 39.3071 309.033 39.3071Z" fill="#A0616A"/>
<path d="M330.015 11.3342C328.491 8.05521 325.113 5.50744 321.511 5.69333C321.728 4.78319 321.326 3.80919 320.679 3.1351C320.032 2.46106 319.171 2.03924 318.307 1.68503C314.04 -0.06563 309.234 -0.467261 304.737 0.550954C304.285 -0.0761724 297.867 1.50661 298.634 1.84263C299.402 2.17871 296.595 2.98133 296.463 3.81093C296.318 4.71986 295.358 5.27709 294.451 5.41886C293.544 5.56069 292.608 5.42265 291.707 5.59497C289.89 5.9422 291.924 8.18286 291.898 10.038C291.872 11.8931 289.789 13.1645 291.595 13.5629C293.46 13.974 290.881 17.2858 292.756 16.9283C296.998 16.1198 315.523 14.396 317.172 18.3998C317.63 19.5115 317.917 20.7712 318.816 21.5664C320.041 22.6488 322.081 22.5618 323.083 23.8544C323.89 24.8965 323.659 26.4265 323.062 27.6026C322.465 28.7788 321.556 29.7805 321.015 30.9837C320.29 32.5968 320.294 34.3936 320.501 36.1774C320.661 36.0935 320.908 36.0096 321.277 35.9257L321.118 35.9459C325.746 32.5637 329.146 27.5271 330.56 21.9606C331.45 18.4546 331.539 14.6131 330.015 11.3342Z" fill="#2F2E41"/>
<path d="M342.209 156.292H311.985C308.477 156.292 305.634 159.145 305.634 162.664V180.066C305.634 183.585 308.477 186.438 311.985 186.438H342.209C345.716 186.438 348.56 183.585 348.56 180.066V162.664C348.56 159.145 345.716 156.292 342.209 156.292Z" fill="#6C63FF"/>
<path d="M348.235 107.644L331.089 154.615L323.788 153.079L336.261 105.211L348.235 107.644Z" fill="#A0616A"/>
<path d="M331.294 160.391C332.71 155.384 331.456 150.642 328.493 149.798C325.53 148.955 321.98 152.33 320.564 157.336C319.148 162.343 320.403 167.085 323.366 167.929C326.329 168.772 329.878 165.397 331.294 160.391Z" fill="#A0616A"/>
<path d="M320.229 45.1851C320.229 45.1851 338.937 48.3683 343.409 58.688C347.882 69.0077 352.354 102.21 351.012 103.556C349.671 104.902 348.329 103.556 349.671 104.902C351.012 106.248 353.285 104.475 351.254 106.932C349.223 109.389 348.329 108.043 348.329 108.94C348.329 109.838 350.118 109.594 348.329 111.51C346.54 113.427 340.726 133.169 340.726 133.169L329.545 129.58L331.781 99.518L320.229 45.1851Z" fill="#6C63FF"/>
<path d="M230.601 131.315H200.377C196.869 131.315 194.026 134.167 194.026 137.686V155.088C194.026 158.607 196.869 161.46 200.377 161.46H230.601C234.109 161.46 236.952 158.607 236.952 155.088V137.686C236.952 134.167 234.109 131.315 230.601 131.315Z" fill="#3F3D56"/>
<path d="M176.008 241.56L175.986 243.283L237.637 244.063L237.658 242.34L176.008 241.56Z" fill="#3F3D56"/>
</g>
<defs>
<clipPath id="clip0_17_43">
<rect width="406" height="309" fill="white"/>
</clipPath>
</defs>
</svg>
